M48
; DRILL file {KiCad 7.0.2-6a45011f42~172~ubuntu22.04.1} date Wed 03 May 2023 07:23:28 PM PDT
; FORMAT={-:-/ absolute / inch / decimal}
; #@! TF.CreationDate,2023-05-03T19:23:28-07:00
; #@! TF.GenerationSoftware,Kicad,Pcbnew,7.0.2-6a45011f42~172~ubuntu22.04.1
; #@! TF.FileFunction,NonPlated,1,2,NPTH
FMAT,2
INCH
; #@! TA.AperFunction,NonPlated,NPTH,ComponentDrill
T1C0.0256
; #@! TA.AperFunction,NonPlated,NPTH,ComponentDrill
T2C0.0354
; #@! TA.AperFunction,NonPlated,NPTH,ComponentDrill
T3C0.0591
; #@! TA.AperFunction,NonPlated,NPTH,ComponentDrill
T4C0.1260
%
G90
G05
T1
X5.2845Y-5.8655
X5.5121Y-5.8655
T2
X2.9016Y-3.1052
X2.9921Y-3.1811
X3.6026Y-4.872
X3.6861Y-4.9556
X4.0248Y-5.286
X4.0393Y-1.758
X4.1084Y-5.3696
X4.1445Y-1.8116
X6.2992Y-3.6492
X6.3897Y-3.5733
X6.4106Y-2.2684
X6.4998Y-2.1909
T3
X2.4752Y-2.6378
X3.3378Y-4.5315
X5.0654Y-1.6087
X7.6075Y-2.6378
T4
X3.1939Y-1.8622
X6.8917Y-1.8622
T0
M30
