M48
; DRILL file {KiCad 7.0.2-6a45011f42~172~ubuntu22.04.1} date Wed 03 May 2023 07:23:28 PM PDT
; FORMAT={-:-/ absolute / inch / decimal}
; #@! TF.CreationDate,2023-05-03T19:23:28-07:00
; #@! TF.GenerationSoftware,Kicad,Pcbnew,7.0.2-6a45011f42~172~ubuntu22.04.1
; #@! TF.FileFunction,Plated,1,2,PTH
FMAT,2
INCH
; #@! TA.AperFunction,Plated,PTH,ViaDrill
T1C0.0157
; #@! TA.AperFunction,Plated,PTH,ComponentDrill
T2C0.0236
; #@! TA.AperFunction,Plated,PTH,ComponentDrill
T3C0.0394
; #@! TA.AperFunction,Plated,PTH,ComponentDrill
T4C0.0400
; #@! TA.AperFunction,Plated,PTH,ComponentDrill
T5C0.0402
%
G90
G05
T1
X3.7047Y-3.5709
X4.1299Y-4.1772
X4.2142Y-3.6787
X4.2563Y-3.726
X4.4823Y-3.2224
X4.4862Y-3.376
X4.5906Y-3.6535
X4.628Y-3.6516
X4.6437Y-3.7173
X4.7244Y-3.6437
X4.7264Y-3.7421
X4.9941Y-3.8445
X5.0669Y-3.7362
X5.3456Y-3.6829
X5.3719Y-3.6528
X5.3996Y-3.1004
X5.4081Y-3.6022
X5.4134Y-3.3602
X5.8169Y-4.2874
X5.9016Y-4.1969
X6.1031Y-4.6047
X6.1035Y-4.0839
X6.1063Y-4.1201
X6.3209Y-4.4398
X6.5378Y-4.765
X6.6067Y-4.6311
X6.6417Y-4.5685
X7.2559Y-2.126
T3
X4.8124Y-6.0177
X4.9124Y-6.0177
X5.0124Y-6.0177
T4
X2.6515Y-2.2756
X2.7171Y-2.2002
X2.727Y-2.3412
X2.7827Y-2.1247
X2.7926Y-2.2658
X2.8582Y-2.1903
X4.9485Y-1.2824
X4.9485Y-1.3824
X5.0485Y-1.2824
X5.0485Y-1.3824
X5.1485Y-1.2824
X5.1485Y-1.3824
X7.2467Y-2.199
X7.311Y-2.2756
X7.3233Y-2.1347
X7.3753Y-2.3522
X7.3876Y-2.2113
X7.4519Y-2.2879
T5
X4.7699Y-1.6136
X5.36Y-1.6136
T2
G00X5.2282Y-5.8662
M15
G01X5.2282Y-5.8229
M16
G05
G00X5.2282Y-6.021
M15
G01X5.2282Y-5.9973
M16
G05
G00X5.5684Y-5.8662
M15
G01X5.5684Y-5.8229
M16
G05
G00X5.5684Y-6.021
M15
G01X5.5684Y-5.9973
M16
G05
T0
M30
