M48
; DRILL file {KiCad 6.0.2+dfsg-1} date Sat 15 Oct 2022 02:58:30 PM EDT
; FORMAT={-:-/ absolute / inch / decimal}
; #@! TF.CreationDate,2022-10-15T14:58:30-04:00
; #@! TF.GenerationSoftware,Kicad,Pcbnew,6.0.2+dfsg-1
; #@! TF.FileFunction,Plated,1,2,PTH
FMAT,2
INCH
; #@! TA.AperFunction,Plated,PTH,ComponentDrill
T1C0.0138
; #@! TA.AperFunction,Plated,PTH,ViaDrill
T2C0.0157
; #@! TA.AperFunction,Plated,PTH,ComponentDrill
T3C0.0236
; #@! TA.AperFunction,Plated,PTH,ComponentDrill
T4C0.0315
; #@! TA.AperFunction,Plated,PTH,ComponentDrill
T5C0.0394
; #@! TA.AperFunction,Plated,PTH,ComponentDrill
T6C0.0591
%
G90
G05
T1
X3.3699Y-2.8537
X3.3699Y-2.9039
X3.3699Y-2.9541
X3.4201Y-2.8537
X3.4201Y-2.9039
X3.4201Y-2.9541
X3.4703Y-2.8537
X3.4703Y-2.9039
X3.4703Y-2.9541
X5.6039Y-2.8537
X5.6039Y-2.9039
X5.6039Y-2.9541
X5.6541Y-2.8537
X5.6541Y-2.9039
X5.6541Y-2.9541
X5.7043Y-2.8537
X5.7043Y-2.9039
X5.7043Y-2.9541
X7.7513Y-2.8537
X7.7513Y-2.9039
X7.7513Y-2.9541
X7.8015Y-2.8537
X7.8015Y-2.9039
X7.8015Y-2.9541
X7.8517Y-2.8537
X7.8517Y-2.9039
X7.8517Y-2.9541
T2
X2.426Y-3.192
X2.4318Y-3.0289
X2.478Y-3.382
X2.4809Y-2.7705
X2.565Y-2.505
X3.017Y-3.202
X3.0681Y-3.2529
X3.0741Y-2.8499
X3.0781Y-2.7069
X3.103Y-3.354
X3.17Y-2.491
X3.198Y-2.751
X3.2451Y-3.0379
X3.2501Y-3.1669
X3.2941Y-2.5689
X3.304Y-1.859
X3.3147Y-3.7129
X3.3167Y-3.4589
X3.3605Y-4.766
X3.3721Y-3.3219
X3.3811Y-2.9989
X3.4041Y-2.5069
X3.4551Y-3.2999
X3.492Y-3.5329
X3.5501Y-3.0389
X3.579Y-4.161
X3.5811Y-3.0589
X3.587Y-4.341
X3.5921Y-3.1679
X3.5961Y-2.5469
X3.6041Y-3.0839
X3.614Y-3.455
X3.6201Y-3.5899
X3.6241Y-3.5329
X3.655Y-3.351
X3.688Y-1.859
X3.6941Y-3.4049
X3.72Y-5.025
X3.7341Y-2.5879
X3.7981Y-2.7259
X3.7981Y-2.8079
X3.7981Y-2.9419
X3.823Y-5.466
X3.903Y-4.3415
X3.956Y-4.161
X4.0115Y-4.916
X4.02Y-4.97
X4.068Y-3.5844
X4.081Y-3.24
X4.1012Y-4.3415
X4.115Y-4.166
X4.1605Y-4.775
X4.2955Y-4.919
X4.3405Y-4.719
X4.548Y-3.392
X4.548Y-3.467
X4.6126Y-2.0061
X4.649Y-1.836
X4.649Y-2.364
X4.654Y-3.296
X4.657Y-3.029
X4.662Y-3.193
X4.7149Y-2.7705
X4.723Y-2.053
X4.792Y-2.505
X4.798Y-4.754
X4.809Y-3.857
X5.082Y-3.542
X5.086Y-3.595
X5.101Y-4.965
X5.246Y-5.466
X5.254Y-3.212
X5.3021Y-3.2529
X5.3081Y-2.8499
X5.3121Y-2.7069
X5.4041Y-2.4909
X5.424Y-4.3415
X5.438Y-2.747
X5.4461Y-3.4129
X5.449Y-4.904
X5.4791Y-3.0379
X5.4841Y-3.1669
X5.491Y-4.954
X5.5281Y-2.5689
X5.538Y-1.859
X5.5387Y-4.3415
X5.5487Y-3.7129
X5.55Y-3.456
X5.554Y-4.165
X5.59Y-3.577
X5.598Y-4.763
X5.6061Y-3.3219
X5.6147Y-2.9993
X5.6381Y-2.5069
X5.673Y-3.391
X5.6891Y-3.2999
X5.726Y-3.5329
X5.729Y-3.974
X5.733Y-4.907
X5.778Y-4.707
X5.7841Y-3.0389
X5.8098Y-4.1659
X5.8151Y-3.0589
X5.822Y-4.343
X5.8261Y-3.1679
X5.8301Y-2.5469
X5.8381Y-3.0839
X5.851Y-3.456
X5.8541Y-3.5899
X5.8581Y-3.5329
X5.922Y-1.859
X5.9281Y-3.4049
X5.9681Y-2.5879
X6.0321Y-2.7259
X6.0321Y-2.8079
X6.0321Y-2.9419
X6.194Y-3.41
X6.2662Y-4.769
X6.302Y-3.5844
X6.545Y-3.363
X6.633Y-5.037
X6.711Y-5.466
X6.802Y-3.352
X6.804Y-3.029
X6.806Y-3.251
X6.8623Y-2.7705
X6.895Y-4.343
X6.9172Y-4.919
X6.935Y-4.972
X6.946Y-2.504
X7.007Y-4.342
X7.021Y-4.163
X7.063Y-3.791
X7.0662Y-4.778
X7.2012Y-4.922
X7.21Y-3.523
X7.2462Y-4.722
X7.411Y-3.212
X7.4495Y-3.2529
X7.4555Y-2.8499
X7.4595Y-2.7069
X7.5513Y-2.4911
X7.581Y-2.75
X7.5935Y-3.4129
X7.6265Y-3.0379
X7.6315Y-3.1669
X7.6755Y-2.5689
X7.6854Y-1.859
X7.6961Y-3.7129
X7.7535Y-3.3219
X7.762Y-2.999
X7.7855Y-2.5069
X7.8365Y-3.2999
X7.864Y-4.165
X7.865Y-4.3415
X7.8734Y-3.5329
X7.902Y-3.234
X7.9315Y-3.0389
X7.9582Y-4.1659
X7.9625Y-3.0589
X7.9735Y-3.1679
X7.974Y-4.342
X7.9775Y-2.5469
X7.9855Y-3.0839
X7.995Y-3.456
X8.0015Y-3.5899
X8.0055Y-3.5329
X8.0694Y-1.859
X8.0755Y-3.4049
X8.1155Y-2.5879
X8.1795Y-2.7259
X8.1795Y-2.8079
X8.1795Y-2.9419
X8.2Y-3.248
X8.4494Y-3.5844
T4
X2.838Y-4.1375
X2.838Y-4.2163
X2.838Y-4.295
X3.6557Y-4.6038
X3.7345Y-4.6038
X3.7786Y-3.7599
X3.8132Y-4.6038
X3.8574Y-3.7599
X3.9361Y-3.7599
X4.5276Y-1.5748
X4.685Y-1.5748
X4.7638Y-1.5748
X4.8425Y-1.5748
X5.0933Y-4.5918
X5.172Y-4.5918
X5.2507Y-4.5918
X6.0126Y-3.7599
X6.0914Y-3.7599
X6.1701Y-3.7599
X6.4663Y-2.198
X6.545Y-2.198
X6.5615Y-4.6068
X6.6237Y-2.198
X6.6402Y-4.6068
X6.719Y-4.6068
X8.16Y-3.7599
X8.2388Y-3.7599
X8.3175Y-3.7599
X8.3493Y-4.1407
X8.3493Y-4.2195
X8.3493Y-4.2982
T5
X4.0261Y-3.0329
X4.0261Y-3.1329
X4.0333Y-5.047
X4.0333Y-5.147
X4.0333Y-5.247
X4.1333Y-5.047
X4.1333Y-5.147
X4.1333Y-5.247
X5.4708Y-5.035
X5.4708Y-5.135
X5.4708Y-5.235
X5.5708Y-5.035
X5.5708Y-5.135
X5.5708Y-5.235
X6.2601Y-3.0329
X6.2601Y-3.1329
X6.939Y-5.05
X6.939Y-5.15
X6.939Y-5.25
X7.039Y-5.05
X7.039Y-5.15
X7.039Y-5.25
X7.765Y-4.706
X7.865Y-4.706
X7.965Y-4.706
X8.4075Y-3.0329
X8.4075Y-3.1329
T6
X2.838Y-4.0548
X2.838Y-4.3777
X3.5731Y-4.6038
X3.696Y-3.7599
X3.8959Y-4.6038
X4.0188Y-3.7599
X4.4449Y-1.5748
X4.9252Y-1.5748
X5.0106Y-4.5918
X5.3334Y-4.5918
X5.93Y-3.7599
X6.2528Y-3.7599
X6.3836Y-2.198
X6.4788Y-4.6068
X6.7064Y-2.198
X6.8017Y-4.6068
X8.0773Y-3.7599
X8.3493Y-4.058
X8.3493Y-4.3809
X8.4002Y-3.7599
T3
G00X3.3249Y-1.3805
M15
G01X3.3249Y-1.3569
M16
G05
G00X3.3249Y-1.5549
M15
G01X3.3249Y-1.5116
M16
G05
G00X3.6651Y-1.3805
M15
G01X3.6651Y-1.3569
M16
G05
G00X3.6651Y-1.5549
M15
G01X3.6651Y-1.5116
M16
G05
G00X5.5589Y-1.3805
M15
G01X5.5589Y-1.3569
M16
G05
G00X5.5589Y-1.5549
M15
G01X5.5589Y-1.5116
M16
G05
G00X5.8991Y-1.3805
M15
G01X5.8991Y-1.3569
M16
G05
G00X5.8991Y-1.5549
M15
G01X5.8991Y-1.5116
M16
G05
G00X7.7063Y-1.3805
M15
G01X7.7063Y-1.3569
M16
G05
G00X7.7063Y-1.5549
M15
G01X7.7063Y-1.5116
M16
G05
G00X8.0465Y-1.3805
M15
G01X8.0465Y-1.3569
M16
G05
G00X8.0465Y-1.5549
M15
G01X8.0465Y-1.5116
M16
G05
T0
M30
