%TF.GenerationSoftware,KiCad,Pcbnew,7.0.2-6a45011f42~172~ubuntu22.04.1*%
%TF.CreationDate,2023-05-30T09:57:01-07:00*%
%TF.ProjectId,CHV_DC31,4348565f-4443-4333-912e-6b696361645f,rev?*%
%TF.SameCoordinates,Original*%
%TF.FileFunction,Paste,Bot*%
%TF.FilePolarity,Positive*%
%FSLAX46Y46*%
G04 Gerber Fmt 4.6, Leading zero omitted, Abs format (unit mm)*
G04 Created by KiCad (PCBNEW 7.0.2-6a45011f42~172~ubuntu22.04.1) date 2023-05-30 09:57:01*
%MOMM*%
%LPD*%
G01*
G04 APERTURE LIST*
G04 Aperture macros list*
%AMRoundRect*
0 Rectangle with rounded corners*
0 $1 Rounding radius*
0 $2 $3 $4 $5 $6 $7 $8 $9 X,Y pos of 4 corners*
0 Add a 4 corners polygon primitive as box body*
4,1,4,$2,$3,$4,$5,$6,$7,$8,$9,$2,$3,0*
0 Add four circle primitives for the rounded corners*
1,1,$1+$1,$2,$3*
1,1,$1+$1,$4,$5*
1,1,$1+$1,$6,$7*
1,1,$1+$1,$8,$9*
0 Add four rect primitives between the rounded corners*
20,1,$1+$1,$2,$3,$4,$5,0*
20,1,$1+$1,$4,$5,$6,$7,0*
20,1,$1+$1,$6,$7,$8,$9,0*
20,1,$1+$1,$8,$9,$2,$3,0*%
%AMHorizOval*
0 Thick line with rounded ends*
0 $1 width*
0 $2 $3 position (X,Y) of the first rounded end (center of the circle)*
0 $4 $5 position (X,Y) of the second rounded end (center of the circle)*
0 Add line between two ends*
20,1,$1,$2,$3,$4,$5,0*
0 Add two circle primitives to create the rounded ends*
1,1,$1,$2,$3*
1,1,$1,$4,$5*%
%AMRotRect*
0 Rectangle, with rotation*
0 The origin of the aperture is its center*
0 $1 length*
0 $2 width*
0 $3 Rotation angle, in degrees counterclockwise*
0 Add horizontal line*
21,1,$1,$2,0,0,$3*%
G04 Aperture macros list end*
%ADD10RoundRect,0.375000X0.530330X0.000000X0.000000X0.530330X-0.530330X0.000000X0.000000X-0.530330X0*%
%ADD11RoundRect,0.250000X0.159099X-0.512652X0.512652X-0.159099X-0.159099X0.512652X-0.512652X0.159099X0*%
%ADD12RoundRect,0.250000X0.450000X-0.262500X0.450000X0.262500X-0.450000X0.262500X-0.450000X-0.262500X0*%
%ADD13RoundRect,0.375000X0.000000X0.530330X-0.530330X0.000000X0.000000X-0.530330X0.530330X0.000000X0*%
%ADD14RoundRect,0.250000X0.707107X0.176777X0.176777X0.707107X-0.707107X-0.176777X-0.176777X-0.707107X0*%
%ADD15R,1.200000X0.900000*%
%ADD16R,0.300000X0.900000*%
%ADD17R,1.650000X0.250000*%
%ADD18RoundRect,0.250000X-0.512652X-0.159099X-0.159099X-0.512652X0.512652X0.159099X0.159099X0.512652X0*%
%ADD19RoundRect,0.225000X-0.106066X0.424264X-0.424264X0.106066X0.106066X-0.424264X0.424264X-0.106066X0*%
%ADD20RoundRect,0.250000X-0.503814X-0.132583X-0.132583X-0.503814X0.503814X0.132583X0.132583X0.503814X0*%
%ADD21RotRect,0.900000X1.250000X315.000000*%
%ADD22RotRect,0.800000X0.930000X315.000000*%
%ADD23RoundRect,0.250000X0.132583X-0.503814X0.503814X-0.132583X-0.132583X0.503814X-0.503814X0.132583X0*%
%ADD24RotRect,0.700000X0.650000X225.000000*%
%ADD25HorizOval,0.250000X-0.212132X-0.212132X0.212132X0.212132X0*%
%ADD26RotRect,0.900000X1.250000X40.000000*%
%ADD27RotRect,0.800000X0.930000X40.000000*%
%ADD28RoundRect,0.250000X0.262500X0.450000X-0.262500X0.450000X-0.262500X-0.450000X0.262500X-0.450000X0*%
%ADD29RoundRect,0.250000X0.503814X0.132583X0.132583X0.503814X-0.503814X-0.132583X-0.132583X-0.503814X0*%
%ADD30RoundRect,0.250000X-0.159099X0.512652X-0.512652X0.159099X0.159099X-0.512652X0.512652X-0.159099X0*%
%ADD31RoundRect,0.250000X-0.176777X0.707107X-0.707107X0.176777X0.176777X-0.707107X0.707107X-0.176777X0*%
%ADD32RotRect,0.900000X1.250000X221.000000*%
%ADD33RotRect,0.800000X0.930000X221.000000*%
%ADD34RotRect,0.900000X1.250000X320.000000*%
%ADD35RotRect,0.800000X0.930000X320.000000*%
%ADD36RoundRect,0.250000X-0.132583X0.503814X-0.503814X0.132583X0.132583X-0.503814X0.503814X-0.132583X0*%
%ADD37RoundRect,0.250000X0.512652X0.159099X0.159099X0.512652X-0.512652X-0.159099X-0.159099X-0.512652X0*%
%ADD38RoundRect,0.250000X-0.413257X0.000000X0.000000X-0.413257X0.413257X0.000000X0.000000X0.413257X0*%
%ADD39RoundRect,0.050000X-0.309359X0.238649X0.238649X-0.309359X0.309359X-0.238649X-0.238649X0.309359X0*%
%ADD40RoundRect,0.050000X-0.309359X-0.238649X-0.238649X-0.309359X0.309359X0.238649X0.238649X0.309359X0*%
%ADD41RoundRect,0.375000X-0.530330X0.000000X0.000000X-0.530330X0.530330X0.000000X0.000000X0.530330X0*%
%ADD42RoundRect,0.375000X0.000000X-0.530330X0.530330X0.000000X0.000000X0.530330X-0.530330X0.000000X0*%
%ADD43RotRect,0.700000X0.650000X315.000000*%
%ADD44HorizOval,0.250000X0.212132X-0.212132X-0.212132X0.212132X0*%
%ADD45RoundRect,0.250000X0.375000X0.625000X-0.375000X0.625000X-0.375000X-0.625000X0.375000X-0.625000X0*%
%ADD46RotRect,0.700000X0.650000X135.000000*%
%ADD47HorizOval,0.250000X-0.212132X0.212132X0.212132X-0.212132X0*%
%ADD48RotRect,1.200000X1.100000X315.000000*%
%ADD49RoundRect,0.681000X-0.804688X1.767767X-1.767767X0.804688X0.804688X-1.767767X1.767767X-0.804688X0*%
%ADD50RoundRect,0.250000X-0.475000X0.250000X-0.475000X-0.250000X0.475000X-0.250000X0.475000X0.250000X0*%
%ADD51RoundRect,0.150000X-0.309359X-0.521491X0.521491X0.309359X0.309359X0.521491X-0.521491X-0.309359X0*%
%ADD52RoundRect,0.250000X-0.707107X-0.176777X-0.176777X-0.707107X0.707107X0.176777X0.176777X0.707107X0*%
%ADD53RoundRect,0.250000X-0.262500X-0.450000X0.262500X-0.450000X0.262500X0.450000X-0.262500X0.450000X0*%
%ADD54RotRect,0.900000X1.250000X333.000000*%
%ADD55RotRect,0.800000X0.930000X333.000000*%
%ADD56RotRect,0.900000X1.200000X315.000000*%
%ADD57RotRect,0.700000X1.000000X135.000000*%
%ADD58R,0.700000X0.650000*%
%ADD59O,0.850000X0.250000*%
%ADD60RoundRect,0.250000X-0.250000X-0.475000X0.250000X-0.475000X0.250000X0.475000X-0.250000X0.475000X0*%
%ADD61R,0.600000X1.450000*%
%ADD62R,0.300000X1.450000*%
%ADD63O,1.000000X1.600000*%
%ADD64O,1.000000X2.100000*%
%ADD65RoundRect,0.150000X-0.256326X-0.468458X0.468458X0.256326X0.256326X0.468458X-0.468458X-0.256326X0*%
%ADD66RotRect,0.900000X1.200000X135.000000*%
%ADD67RotRect,0.900000X1.200000X225.000000*%
%ADD68RoundRect,0.150000X-0.521491X0.309359X0.309359X-0.521491X0.521491X-0.309359X-0.309359X0.521491X0*%
G04 APERTURE END LIST*
D10*
%TO.C,D15*%
X120691371Y-107711371D03*
X118428629Y-105448629D03*
%TD*%
D11*
%TO.C,C24*%
X80221924Y-62358928D03*
X81565426Y-61015426D03*
%TD*%
%TO.C,C6*%
X155258249Y-124075322D03*
X156601751Y-122731820D03*
%TD*%
D12*
%TO.C,R4*%
X135375000Y-143625000D03*
X135375000Y-141800000D03*
%TD*%
D11*
%TO.C,C5*%
X153788249Y-122605322D03*
X155131751Y-121261820D03*
%TD*%
D13*
%TO.C,D19*%
X118341371Y-118828629D03*
X116078629Y-121091371D03*
%TD*%
D14*
%TO.C,D2*%
X154240000Y-101205571D03*
X152260102Y-99225673D03*
%TD*%
D15*
%TO.C,D9*%
X109550000Y-92600000D03*
X109550000Y-95900000D03*
%TD*%
D16*
%TO.C,IC1*%
X146672500Y-114043571D03*
X147172500Y-114043571D03*
X147672500Y-114043571D03*
X148172500Y-114043571D03*
X148172500Y-116843571D03*
X147672500Y-116843571D03*
X147172500Y-116843571D03*
X146672500Y-116843571D03*
D17*
X147422500Y-115443571D03*
%TD*%
D18*
%TO.C,C17*%
X160150000Y-102656498D03*
X161493502Y-104000000D03*
%TD*%
D19*
%TO.C,D6*%
X151921225Y-133293303D03*
X149587773Y-135626755D03*
%TD*%
D20*
%TO.C,R7*%
X154094765Y-96218336D03*
X155385235Y-97508806D03*
%TD*%
D18*
%TO.C,C10*%
X158608249Y-127378249D03*
X159951751Y-128721751D03*
%TD*%
D11*
%TO.C,C18*%
X160150000Y-108150000D03*
X161493502Y-106806498D03*
%TD*%
D21*
%TO.C,S8*%
X92441816Y-121752191D03*
X93502476Y-122812851D03*
X95623797Y-124934172D03*
D22*
X90681120Y-121320856D03*
X89075988Y-122925988D03*
X96055132Y-126694868D03*
X94450000Y-128300000D03*
%TD*%
D23*
%TO.C,R5*%
X146214765Y-128995235D03*
X147505235Y-127704765D03*
%TD*%
%TO.C,R24*%
X120329765Y-103820235D03*
X121620235Y-102529765D03*
%TD*%
D24*
%TO.C,U5*%
X179458507Y-62794975D03*
D25*
X179939340Y-61239340D03*
X180292893Y-61592893D03*
X180646447Y-61946447D03*
X181000000Y-62300000D03*
X178949390Y-64350610D03*
X178595837Y-63997057D03*
X178242283Y-63643503D03*
X177888730Y-63289950D03*
%TD*%
D23*
%TO.C,R10*%
X139744765Y-126858806D03*
X141035235Y-125568336D03*
%TD*%
D26*
%TO.C,S3*%
X161552083Y-88089862D03*
X162701149Y-87125680D03*
X164999283Y-85197318D03*
D27*
X160968934Y-89806264D03*
X162428062Y-91545185D03*
X166790872Y-84921079D03*
X168250000Y-86660000D03*
%TD*%
D28*
%TO.C,R18*%
X111000000Y-33800000D03*
X109175000Y-33800000D03*
%TD*%
D29*
%TO.C,R20*%
X174596249Y-62373299D03*
X173305779Y-61082829D03*
%TD*%
D10*
%TO.C,D18*%
X127481371Y-105231371D03*
X125218629Y-102968629D03*
%TD*%
D29*
%TO.C,R19*%
X179643153Y-56668763D03*
X178352683Y-55378293D03*
%TD*%
D13*
%TO.C,D22*%
X117081371Y-111718629D03*
X114818629Y-113981371D03*
%TD*%
D30*
%TO.C,C4*%
X145661751Y-100691820D03*
X144318249Y-102035322D03*
%TD*%
D23*
%TO.C,R6*%
X144804765Y-127595235D03*
X146095235Y-126304765D03*
%TD*%
D18*
%TO.C,C2*%
X156828249Y-131638249D03*
X158171751Y-132981751D03*
%TD*%
D31*
%TO.C,D12*%
X178037867Y-58908579D03*
X176057969Y-60888477D03*
%TD*%
D32*
%TO.C,S5*%
X167021193Y-56722735D03*
X165889129Y-57706823D03*
X163625000Y-59675000D03*
D33*
X167574297Y-54996416D03*
X166085043Y-53283225D03*
X161838505Y-59982465D03*
X160349251Y-58269274D03*
%TD*%
D34*
%TO.C,S6*%
X74461117Y-76800005D03*
X75610184Y-77764186D03*
X77908317Y-79692549D03*
D35*
X72669528Y-76523766D03*
X71210400Y-78262687D03*
X78491466Y-81408951D03*
X77032338Y-83147872D03*
%TD*%
D36*
%TO.C,R23*%
X96910795Y-119415193D03*
X95620325Y-120705663D03*
%TD*%
%TO.C,R27*%
X124135235Y-105514765D03*
X122844765Y-106805235D03*
%TD*%
D37*
%TO.C,C21*%
X182019669Y-60545279D03*
X180676167Y-59201777D03*
%TD*%
D38*
%TO.C,U3*%
X156942929Y-115316500D03*
D39*
X152680843Y-114731369D03*
X152963686Y-114448526D03*
X153246528Y-114165684D03*
X153529371Y-113882841D03*
X153812214Y-113599998D03*
X154095056Y-113317156D03*
X154377899Y-113034313D03*
X154660742Y-112751470D03*
X154943585Y-112468627D03*
X155226427Y-112185785D03*
X155509270Y-111902942D03*
X155792113Y-111620099D03*
X156074955Y-111337257D03*
X156357798Y-111054414D03*
D40*
X157542202Y-111054414D03*
X157825045Y-111337257D03*
X158107887Y-111620099D03*
X158390730Y-111902942D03*
X158673573Y-112185785D03*
X158956415Y-112468627D03*
X159239258Y-112751470D03*
X159522101Y-113034313D03*
X159804944Y-113317156D03*
X160087786Y-113599998D03*
X160370629Y-113882841D03*
X160653472Y-114165684D03*
X160936314Y-114448526D03*
X161219157Y-114731369D03*
D39*
X161219157Y-115915773D03*
X160936314Y-116198616D03*
X160653472Y-116481458D03*
X160370629Y-116764301D03*
X160087786Y-117047144D03*
X159804944Y-117329986D03*
X159522101Y-117612829D03*
X159239258Y-117895672D03*
X158956415Y-118178515D03*
X158673573Y-118461357D03*
X158390730Y-118744200D03*
X158107887Y-119027043D03*
X157825045Y-119309885D03*
X157542202Y-119592728D03*
D40*
X156357798Y-119592728D03*
X156074955Y-119309885D03*
X155792113Y-119027043D03*
X155509270Y-118744200D03*
X155226427Y-118461357D03*
X154943585Y-118178515D03*
X154660742Y-117895672D03*
X154377899Y-117612829D03*
X154095056Y-117329986D03*
X153812214Y-117047144D03*
X153529371Y-116764301D03*
X153246528Y-116481458D03*
X152963686Y-116198616D03*
X152680843Y-115915773D03*
%TD*%
D20*
%TO.C,R30*%
X139379765Y-104354765D03*
X140670235Y-105645235D03*
%TD*%
D30*
%TO.C,C3*%
X164516751Y-109793249D03*
X163173249Y-111136751D03*
%TD*%
D18*
%TO.C,C22*%
X180928249Y-66128249D03*
X182271751Y-67471751D03*
%TD*%
D41*
%TO.C,D23*%
X128848629Y-123488629D03*
X131111371Y-125751371D03*
%TD*%
D15*
%TO.C,D11*%
X153375000Y-78387500D03*
X153375000Y-81687500D03*
%TD*%
D13*
%TO.C,D20*%
X136656371Y-118868629D03*
X134393629Y-121131371D03*
%TD*%
D37*
%TO.C,C13*%
X151670000Y-113003571D03*
X150326498Y-111660069D03*
%TD*%
D42*
%TO.C,D21*%
X132018629Y-107706371D03*
X134281371Y-105443629D03*
%TD*%
D36*
%TO.C,R12*%
X143485235Y-143474765D03*
X142194765Y-144765235D03*
%TD*%
D23*
%TO.C,R2*%
X163363530Y-117736041D03*
X164654000Y-116445571D03*
%TD*%
D36*
%TO.C,R21*%
X71360661Y-63045191D03*
X70070191Y-64335661D03*
%TD*%
D23*
%TO.C,R25*%
X126950000Y-113150000D03*
X128240470Y-111859530D03*
%TD*%
D30*
%TO.C,C23*%
X74137177Y-60268675D03*
X72793675Y-61612177D03*
%TD*%
D43*
%TO.C,U6*%
X77484791Y-63031309D03*
D44*
X75929156Y-62550476D03*
X76282709Y-62196923D03*
X76636263Y-61843369D03*
X76989816Y-61489816D03*
X79040426Y-63540426D03*
X78686873Y-63893979D03*
X78333319Y-64247533D03*
X77979766Y-64601086D03*
%TD*%
D11*
%TO.C,C16*%
X144948249Y-122821751D03*
X146291751Y-121478249D03*
%TD*%
D45*
%TO.C,D10*%
X116287500Y-34000000D03*
X113487500Y-34000000D03*
%TD*%
D30*
%TO.C,C14*%
X151411751Y-120348249D03*
X150068249Y-121691751D03*
%TD*%
D46*
%TO.C,U1*%
X149907929Y-103034784D03*
D47*
X151470635Y-103508546D03*
X151117082Y-103862099D03*
X150763528Y-104215653D03*
X150409975Y-104569206D03*
X148359365Y-102518596D03*
X148712918Y-102165043D03*
X149066472Y-101811489D03*
X149420025Y-101457936D03*
%TD*%
D48*
%TO.C,Y1*%
X158926238Y-104142736D03*
X160071751Y-105288249D03*
X158940380Y-106419620D03*
X157794867Y-105274107D03*
%TD*%
D49*
%TO.C,L1*%
X144800660Y-140696711D03*
X147629088Y-137868283D03*
%TD*%
D50*
%TO.C,C19*%
X109600000Y-36550000D03*
X109600000Y-38450000D03*
%TD*%
D29*
%TO.C,R32*%
X128755235Y-127195235D03*
X127464765Y-125904765D03*
%TD*%
D51*
%TO.C,U7*%
X152408839Y-138748664D03*
X153062913Y-136751087D03*
X151065336Y-137405161D03*
%TD*%
D18*
%TO.C,C9*%
X161568249Y-118651820D03*
X162911751Y-119995322D03*
%TD*%
D52*
%TO.C,D14*%
X73825477Y-64550477D03*
X75805375Y-66530375D03*
%TD*%
D36*
%TO.C,R22*%
X79435051Y-66644581D03*
X78144581Y-67935051D03*
%TD*%
D53*
%TO.C,R17*%
X118375000Y-33800000D03*
X120200000Y-33800000D03*
%TD*%
D54*
%TO.C,S4*%
X102871315Y-42462858D03*
X104207824Y-43143844D03*
X106880844Y-44505815D03*
D55*
X101063503Y-42596719D03*
X100032945Y-44619304D03*
X107835153Y-46047046D03*
X106804595Y-48069631D03*
%TD*%
D11*
%TO.C,C26*%
X153653638Y-140442152D03*
X154997140Y-139098650D03*
%TD*%
D20*
%TO.C,R31*%
X124250000Y-113850000D03*
X125540470Y-115140470D03*
%TD*%
D37*
%TO.C,C12*%
X154090000Y-110563571D03*
X152746498Y-109220069D03*
%TD*%
D21*
%TO.C,S7*%
X103168019Y-132268019D03*
X104228679Y-133328679D03*
X106350000Y-135450000D03*
D22*
X101407323Y-131836684D03*
X99802191Y-133441816D03*
X106781335Y-137210696D03*
X105176203Y-138815828D03*
%TD*%
D18*
%TO.C,C8*%
X160088249Y-120121820D03*
X161431751Y-121465322D03*
%TD*%
D29*
%TO.C,R9*%
X154080029Y-131826802D03*
X152789559Y-130536332D03*
%TD*%
%TO.C,R29*%
X131200000Y-116000000D03*
X129909530Y-114709530D03*
%TD*%
%TO.C,R11*%
X143785235Y-125408806D03*
X142494765Y-124118336D03*
%TD*%
D11*
%TO.C,C1*%
X148626498Y-120263502D03*
X149970000Y-118920000D03*
%TD*%
D56*
%TO.C,D13*%
X104133274Y-96083274D03*
X106466726Y-98416726D03*
%TD*%
D12*
%TO.C,R3*%
X139110000Y-140112500D03*
X139110000Y-138287500D03*
%TD*%
D20*
%TO.C,R8*%
X157934530Y-99509530D03*
X159225000Y-100800000D03*
%TD*%
D29*
%TO.C,R28*%
X114495235Y-117420235D03*
X113204765Y-116129765D03*
%TD*%
D57*
%TO.C,S2*%
X133486397Y-129297309D03*
X129243756Y-133539950D03*
X136102692Y-131913604D03*
X131860051Y-136156245D03*
%TD*%
D58*
%TO.C,U4*%
X104700000Y-35900000D03*
D59*
X106150000Y-35150000D03*
X106150000Y-35650000D03*
X106150000Y-36150000D03*
X106150000Y-36650000D03*
X103250000Y-36650000D03*
X103250000Y-36150000D03*
X103250000Y-35650000D03*
X103250000Y-35150000D03*
%TD*%
D60*
%TO.C,C20*%
X103250000Y-38850000D03*
X105150000Y-38850000D03*
%TD*%
D11*
%TO.C,C11*%
X161703249Y-109696751D03*
X163046751Y-108353249D03*
%TD*%
D57*
%TO.C,S1*%
X167563173Y-121420532D03*
X163320532Y-125663173D03*
X170179468Y-124036827D03*
X165936827Y-128279468D03*
%TD*%
D11*
%TO.C,C7*%
X152068249Y-105585322D03*
X153411751Y-104241820D03*
%TD*%
D61*
%TO.C,J1*%
X140367500Y-147537500D03*
X139567500Y-147537500D03*
D62*
X138367500Y-147537500D03*
X137367500Y-147537500D03*
X136867500Y-147537500D03*
X135867500Y-147537500D03*
D61*
X134667500Y-147537500D03*
X133867500Y-147537500D03*
X133867500Y-147537500D03*
X134667500Y-147537500D03*
D62*
X135367500Y-147537500D03*
X136367500Y-147537500D03*
X137867500Y-147537500D03*
X138867500Y-147537500D03*
D61*
X139567500Y-147537500D03*
X140367500Y-147537500D03*
D63*
X141437500Y-152632500D03*
D64*
X141437500Y-148452500D03*
D63*
X132797500Y-152632500D03*
D64*
X132797500Y-148452500D03*
%TD*%
D12*
%TO.C,R1*%
X156900000Y-80900000D03*
X156900000Y-79075000D03*
%TD*%
D13*
%TO.C,D17*%
X137907285Y-111717716D03*
X135644543Y-113980458D03*
%TD*%
D65*
%TO.C,U2*%
X155557417Y-130372514D03*
X154885666Y-129700763D03*
X154213915Y-129029012D03*
X155822583Y-127420344D03*
X157166085Y-128763846D03*
%TD*%
D18*
%TO.C,C25*%
X147459382Y-143298864D03*
X148802884Y-144642366D03*
%TD*%
D66*
%TO.C,D3*%
X149425000Y-91400000D03*
X147091548Y-89066548D03*
%TD*%
D18*
%TO.C,C15*%
X158648249Y-121561820D03*
X159991751Y-122905322D03*
%TD*%
D13*
%TO.C,D16*%
X123881371Y-123478629D03*
X121618629Y-125741371D03*
%TD*%
D67*
%TO.C,D1*%
X141936726Y-141743274D03*
X139603274Y-144076726D03*
%TD*%
D68*
%TO.C,Q1*%
X146557678Y-147157678D03*
X144560101Y-146503604D03*
X145903604Y-145160101D03*
%TD*%
D29*
%TO.C,R26*%
X128675000Y-118075000D03*
X127384530Y-116784530D03*
%TD*%
M02*
