%TF.GenerationSoftware,KiCad,Pcbnew,7.0.2-6a45011f42~172~ubuntu22.04.1*%
%TF.CreationDate,2023-05-30T09:57:01-07:00*%
%TF.ProjectId,CHV_DC31,4348565f-4443-4333-912e-6b696361645f,rev?*%
%TF.SameCoordinates,Original*%
%TF.FileFunction,Profile,NP*%
%FSLAX46Y46*%
G04 Gerber Fmt 4.6, Leading zero omitted, Abs format (unit mm)*
G04 Created by KiCad (PCBNEW 7.0.2-6a45011f42~172~ubuntu22.04.1) date 2023-05-30 09:57:01*
%MOMM*%
%LPD*%
G01*
G04 APERTURE LIST*
%TA.AperFunction,Profile*%
%ADD10C,0.100000*%
%TD*%
%TA.AperFunction,Profile*%
%ADD11C,0.120000*%
%TD*%
G04 APERTURE END LIST*
D10*
%TO.C,FID1*%
X59468625Y-69392947D02*
X59501181Y-69962319D01*
X59501181Y-69962319D02*
X59615489Y-70516503D01*
X59519268Y-68817068D02*
X59468625Y-69392947D01*
X59615489Y-70516503D02*
X59807209Y-71047529D01*
X59656004Y-68244075D02*
X59519268Y-68817068D01*
X59807209Y-71047529D02*
X60075617Y-71546724D01*
X59891132Y-67566909D02*
X59656004Y-68244075D01*
X60075617Y-71546724D02*
X60416373Y-72005407D01*
X60181968Y-66852119D02*
X59891132Y-67566909D01*
X60416373Y-72005407D02*
X60828028Y-72414170D01*
X60528511Y-66101875D02*
X60181968Y-66852119D01*
X60828028Y-72414170D02*
X67168533Y-77841652D01*
X60929314Y-65315463D02*
X60528511Y-66101875D01*
X61384378Y-64492874D02*
X60929314Y-65315463D01*
X61892978Y-63635563D02*
X61384378Y-64492874D01*
X62335744Y-59325841D02*
X62379152Y-59919809D01*
X62375534Y-58733318D02*
X62335744Y-59325841D01*
X62379152Y-59919809D02*
X62498524Y-60501483D01*
X62498524Y-60501483D02*
X62685180Y-61052766D01*
X62508653Y-58159605D02*
X62375534Y-58733318D01*
X62612109Y-57884685D02*
X62508653Y-58159605D01*
X62685180Y-61052766D02*
X62929713Y-61559197D01*
X62742334Y-57619895D02*
X62612109Y-57884685D01*
X62899328Y-57368126D02*
X62742334Y-57619895D01*
X62929713Y-61559197D02*
X63067896Y-61817477D01*
X63067896Y-61817477D02*
X61892978Y-63635563D01*
X63085260Y-57130827D02*
X62899328Y-57368126D01*
X65755594Y-79515037D02*
X65755594Y-79598953D01*
X65755594Y-79598953D02*
X65770788Y-79674917D01*
X65770788Y-79674917D02*
X65825048Y-79737133D01*
X65807683Y-79444141D02*
X65755594Y-79515037D01*
X65825048Y-79737133D02*
X67392811Y-81081341D01*
X67168533Y-77841652D02*
X65807683Y-79444141D01*
X67392811Y-81081341D02*
X67455030Y-81119687D01*
X67455030Y-81119687D02*
X67530270Y-81132707D01*
X67530270Y-81132707D02*
X67614193Y-81117517D01*
X67614193Y-81117517D02*
X67685817Y-81063981D01*
X67685817Y-81063981D02*
X69839592Y-78548471D01*
X68891843Y-50324407D02*
X63085260Y-57130827D01*
X69101650Y-50108089D02*
X68891843Y-50324407D01*
X69329544Y-49916368D02*
X69101650Y-50108089D01*
X69574077Y-49749970D02*
X69329544Y-49916368D01*
X69832356Y-49606722D02*
X69574077Y-49749970D01*
X69839592Y-78548471D02*
X71407355Y-79875314D01*
X70100044Y-81492279D02*
X70118132Y-81569685D01*
X70110894Y-81411975D02*
X70100044Y-81492279D01*
X70118132Y-81569685D02*
X70166604Y-81632629D01*
X70149238Y-81339623D02*
X70110894Y-81411975D01*
X70166604Y-81632629D02*
X71545541Y-82821296D01*
X70381471Y-49388958D02*
X69832356Y-49606722D01*
X70961696Y-49258730D02*
X70381471Y-49388958D01*
X71407355Y-79875314D02*
X70149238Y-81339623D01*
X71545541Y-82821296D02*
X71607759Y-82860370D01*
X71554942Y-49209534D02*
X70961696Y-49258730D01*
X71607759Y-82860370D02*
X71683000Y-82873390D01*
X71683000Y-82873390D02*
X71700361Y-82873390D01*
X71700361Y-82873390D02*
X71790795Y-82843010D01*
X71790795Y-82843010D02*
X71855184Y-82786576D01*
X71855184Y-82786576D02*
X73095938Y-81339633D01*
X72146019Y-49237030D02*
X71554942Y-49209534D01*
X72580780Y-83614234D02*
X72598868Y-83696708D01*
X72592400Y-83531760D02*
X72580780Y-83614234D01*
X72598868Y-83696708D02*
X72648064Y-83769060D01*
X72630746Y-83458680D02*
X72592400Y-83531760D01*
X72648064Y-83769060D02*
X74026278Y-84957723D01*
X72716837Y-49334694D02*
X72146019Y-49237030D01*
X73095938Y-81339633D02*
X73888863Y-81994378D01*
X73250760Y-49497474D02*
X72716837Y-49334694D01*
X73526403Y-49600934D02*
X73250760Y-49497474D01*
X73888863Y-81994378D02*
X72630746Y-83458680D01*
X74026278Y-84957723D02*
X74181102Y-85009817D01*
X74181102Y-85009817D02*
X74198462Y-85009817D01*
X74198462Y-85009817D02*
X74274426Y-84985961D01*
X74274426Y-84985961D02*
X74336642Y-84923745D01*
X74336642Y-84923745D02*
X75594035Y-83458714D01*
X74348267Y-48847800D02*
X73526403Y-49600934D01*
X75144810Y-48151821D02*
X74348267Y-48847800D01*
X75594035Y-83458714D02*
X76611237Y-84337734D01*
X75915307Y-47513718D02*
X75144810Y-48151821D01*
X76611237Y-84337734D02*
X76716867Y-84386930D01*
X76660482Y-46934217D02*
X75915307Y-47513718D01*
X76716867Y-84386930D02*
X76834789Y-84372440D01*
X76834789Y-84372440D02*
X77057619Y-84294306D01*
X77057619Y-84294306D02*
X77322409Y-84232804D01*
X77322409Y-84232804D02*
X77690657Y-84177826D01*
X77378889Y-46415489D02*
X76660482Y-46934217D01*
X77679087Y-115093884D02*
X77715977Y-115818083D01*
X77690657Y-84177826D02*
X78162360Y-84146718D01*
X77715977Y-114372583D02*
X77679087Y-115093884D01*
X77715977Y-115818083D02*
X77823049Y-116521293D01*
X77823049Y-113671537D02*
X77715977Y-114372583D01*
X77823049Y-116521293D02*
X77997406Y-117199911D01*
X77997406Y-112994369D02*
X77823049Y-113671537D01*
X77997406Y-117199911D02*
X78235429Y-117850310D01*
X78069805Y-45956807D02*
X77378889Y-46415489D01*
X78162360Y-84146718D02*
X78738243Y-84156798D01*
X78235429Y-112344692D02*
X77997406Y-112994369D01*
X78235429Y-117850310D02*
X78534222Y-118469603D01*
X78534222Y-111726122D02*
X78235429Y-112344692D01*
X78534222Y-118469603D02*
X78888723Y-119053446D01*
X78733228Y-45559622D02*
X78069805Y-45956807D01*
X78738243Y-84156798D02*
X79419029Y-84224796D01*
X78888723Y-111142283D02*
X78534222Y-111726122D01*
X78888723Y-119053446D02*
X79296038Y-119598944D01*
X79296038Y-110596785D02*
X78888723Y-111142283D01*
X79296038Y-119598944D02*
X79753271Y-120101755D01*
X79367712Y-45224655D02*
X78733228Y-45559622D01*
X79419029Y-84224796D02*
X80205444Y-84368044D01*
X79753271Y-110093249D02*
X79296038Y-110596785D01*
X79753271Y-120101755D02*
X80256085Y-120558989D01*
X79908870Y-45007613D02*
X79367712Y-45224655D01*
X80205444Y-84368044D02*
X81098208Y-84602448D01*
X80256085Y-109635291D02*
X79753271Y-110093249D01*
X80256085Y-120558989D02*
X80801583Y-120966304D01*
X80467390Y-44873773D02*
X79908870Y-45007613D01*
X80801583Y-109226528D02*
X80256085Y-109635291D01*
X80801583Y-120966304D02*
X81385423Y-121321529D01*
X81033145Y-44822407D02*
X80467390Y-44873773D01*
X81098208Y-84602448D02*
X82096599Y-84945372D01*
X81385423Y-108870584D02*
X80801583Y-109226528D01*
X81385423Y-121321529D02*
X82004715Y-121619600D01*
X81597453Y-44852073D02*
X81033145Y-44822407D01*
X82004715Y-108571061D02*
X81385423Y-108870584D01*
X82004715Y-121619600D02*
X82655117Y-121857618D01*
X82096599Y-84945372D02*
X83202787Y-85413459D01*
X82150908Y-44961315D02*
X81597453Y-44852073D01*
X82655117Y-108332318D02*
X82004715Y-108571061D01*
X82655117Y-121857618D02*
X83333733Y-122031977D01*
X82684830Y-45149417D02*
X82150908Y-44961315D01*
X83190537Y-45415655D02*
X82684830Y-45149417D01*
X83202787Y-85413459D02*
X84416772Y-86024796D01*
X83333733Y-108157239D02*
X82655117Y-108332318D01*
X83333733Y-122031977D02*
X84036948Y-122139049D01*
X83658623Y-45758581D02*
X83190537Y-45415655D01*
X84036948Y-108048725D02*
X83333733Y-108157239D01*
X84036948Y-122139049D02*
X84761142Y-122175939D01*
X84416772Y-86024796D02*
X85738555Y-86794566D01*
X84761142Y-108012535D02*
X84036948Y-108048725D01*
X84761142Y-122175939D02*
X85148923Y-122145559D01*
X85148923Y-122145559D02*
X85536703Y-122089853D01*
X85445546Y-108048725D02*
X84761142Y-108012535D01*
X85536703Y-122089853D02*
X109245595Y-145695284D01*
X85738555Y-86794566D02*
X87169582Y-87741592D01*
X86104629Y-108150001D02*
X85445546Y-108048725D01*
X87169582Y-87741592D02*
X88710576Y-88881061D01*
X88710576Y-88881061D02*
X90360815Y-90230333D01*
X89051332Y-98535788D02*
X89078100Y-99265773D01*
X89078100Y-99265773D02*
X89154792Y-99980562D01*
X89100528Y-97533059D02*
X89051332Y-98535788D01*
X89154792Y-99980562D02*
X89281394Y-100680161D01*
X89245222Y-96557816D02*
X89100528Y-97533059D01*
X89281394Y-100680161D02*
X89454304Y-101361669D01*
X89454304Y-101361669D02*
X89671344Y-102023647D01*
X89480351Y-95613687D02*
X89245222Y-96557816D01*
X89671344Y-102023647D02*
X89931071Y-102664642D01*
X89800848Y-94706455D02*
X89480351Y-95613687D01*
X89931071Y-102664642D02*
X90230588Y-103283208D01*
X89981766Y-51186065D02*
X83658623Y-45758581D01*
X90202375Y-93838291D02*
X89800848Y-94706455D01*
X90230588Y-103283208D02*
X90567726Y-103877183D01*
X90360815Y-90230333D02*
X91842485Y-91522453D01*
X90567726Y-103877183D02*
X86104629Y-108150001D01*
X90679866Y-93015699D02*
X90202375Y-93838291D01*
X91101752Y-53701653D02*
X93255528Y-51186143D01*
X91228258Y-92242309D02*
X90679866Y-93015699D01*
X91377342Y-49566212D02*
X89981766Y-51186065D01*
X91440286Y-49519186D02*
X91377342Y-49566212D01*
X91515522Y-49497486D02*
X91440286Y-49519186D01*
X91599452Y-49504066D02*
X91515522Y-49497486D01*
X91670348Y-49549650D02*
X91599452Y-49504066D01*
X91842485Y-91522453D02*
X91228258Y-92242309D01*
X92670239Y-55028501D02*
X91101752Y-53701653D01*
X93238112Y-50893137D02*
X91670348Y-49549650D01*
X93255528Y-51186143D02*
X93301826Y-51113791D01*
X93289478Y-50956081D02*
X93238112Y-50893137D01*
X93301826Y-51113791D02*
X93311906Y-51033487D01*
X93311906Y-51033487D02*
X93289478Y-50956081D01*
X93892907Y-53598198D02*
X92670239Y-55028501D01*
X93971013Y-53535996D02*
X93892907Y-53598198D01*
X94048419Y-53512126D02*
X93971013Y-53535996D01*
X94132335Y-53525146D02*
X94048419Y-53512126D01*
X94203231Y-53564220D02*
X94132335Y-53525146D01*
X94375452Y-56493557D02*
X95598843Y-55045890D01*
X95151014Y-57164938D02*
X94375452Y-56493557D01*
X95582169Y-54752884D02*
X94203231Y-53564220D01*
X95598843Y-55045890D02*
X95645141Y-54973538D01*
X95632807Y-54815828D02*
X95582169Y-54752884D01*
X95645141Y-54973538D02*
X95655221Y-54893234D01*
X95655221Y-54893234D02*
X95632807Y-54815828D01*
X96391768Y-55717995D02*
X95151014Y-57164938D01*
X96464120Y-55666629D02*
X96391768Y-55717995D01*
X96546594Y-55644929D02*
X96464120Y-55666629D01*
X96629068Y-55655009D02*
X96546594Y-55644929D01*
X96702134Y-55700593D02*
X96629068Y-55655009D01*
X96785513Y-36208080D02*
X96790553Y-36434527D01*
X96790553Y-36434527D02*
X96822375Y-36660974D01*
X96822375Y-36660974D02*
X98217954Y-44517875D01*
X96850627Y-35763145D02*
X96785513Y-36208080D01*
X96856970Y-58629925D02*
X98097726Y-57164895D01*
X97009065Y-35340638D02*
X96850627Y-35763145D01*
X97253600Y-34955028D02*
X97009065Y-35340638D01*
X97873446Y-59491580D02*
X96856970Y-58629925D01*
X97889448Y-60437157D02*
X97909706Y-59904680D01*
X97909706Y-59904680D02*
X97942270Y-59715132D01*
X97914788Y-60827833D02*
X97889448Y-60437157D01*
X97940730Y-59590700D02*
X97873446Y-59491580D01*
X97942270Y-59715132D02*
X97940730Y-59590700D01*
X97979188Y-61298809D02*
X97914788Y-60827833D01*
X98080352Y-56872617D02*
X96702134Y-55700593D01*
X98097110Y-61849375D02*
X97979188Y-61298809D01*
X98097726Y-57164895D02*
X98136072Y-57100509D01*
X98127378Y-56934833D02*
X98080352Y-56872617D01*
X98136072Y-57100509D02*
X98149092Y-57010069D01*
X98149092Y-57010069D02*
X98127378Y-56934833D01*
X98217954Y-44517875D02*
X98278000Y-44760237D01*
X98278000Y-44760237D02*
X98364814Y-44992472D01*
X98278700Y-62476624D02*
X98097110Y-61849375D01*
X98364814Y-44992472D02*
X98477668Y-45213854D01*
X98477668Y-45213854D02*
X98614406Y-45420767D01*
X98536980Y-63179837D02*
X98278700Y-62476624D01*
X98614406Y-45420767D02*
X98774293Y-45610317D01*
X98774293Y-45610317D02*
X98955163Y-45780332D01*
X98856089Y-32922073D02*
X97253600Y-34955028D01*
X98884246Y-63956123D02*
X98536980Y-63179837D01*
X98955163Y-45780332D02*
X99154841Y-45928645D01*
X99020316Y-32737587D02*
X98856089Y-32922073D01*
X99154841Y-45928645D02*
X99372604Y-46051635D01*
X99201906Y-32574806D02*
X99020316Y-32737587D01*
X99333520Y-64805478D02*
X98884246Y-63956123D01*
X99372604Y-46051635D02*
X105627015Y-49221887D01*
X99399412Y-32433006D02*
X99201906Y-32574806D01*
X99609943Y-32314357D02*
X99399412Y-32433006D01*
X99831329Y-32220305D02*
X99609943Y-32314357D01*
X99895660Y-65724289D02*
X99333520Y-64805478D01*
X100062118Y-32151575D02*
X99831329Y-32220305D01*
X100300862Y-32108890D02*
X100062118Y-32151575D01*
X100544670Y-32095142D02*
X100300862Y-32108890D01*
X100583681Y-66712555D02*
X99895660Y-65724289D01*
X101409886Y-67767372D02*
X100583681Y-66712555D01*
X102385846Y-68887308D02*
X101409886Y-67767372D01*
X103525319Y-66263274D02*
X103525319Y-70070908D01*
X103525319Y-70070908D02*
X102385846Y-68887308D01*
X103547019Y-65834980D02*
X103525319Y-66263274D01*
X103611405Y-65419707D02*
X103547019Y-65834980D01*
X103715579Y-65017456D02*
X103611405Y-65419707D01*
X103858100Y-64631844D02*
X103715579Y-65017456D01*
X104036074Y-64265047D02*
X103858100Y-64631844D01*
X104247327Y-63917781D02*
X104036074Y-64265047D01*
X104491138Y-63594389D02*
X104247327Y-63917781D01*
X104763890Y-63294866D02*
X104491138Y-63594389D01*
X105063406Y-63022844D02*
X104763890Y-63294866D01*
X105388969Y-62780480D02*
X105063406Y-63022844D01*
X105627015Y-49221887D02*
X105935217Y-49403478D01*
X105736957Y-62568506D02*
X105388969Y-62780480D01*
X105935217Y-49403478D02*
X106211581Y-49623414D01*
X106105925Y-62391253D02*
X105736957Y-62568506D01*
X106211581Y-49623414D02*
X106453223Y-49877352D01*
X106453223Y-49877352D02*
X106657240Y-50160953D01*
X106493711Y-62248732D02*
X106105925Y-62391253D01*
X106657240Y-50160953D02*
X106820746Y-50470599D01*
X106820746Y-50470599D02*
X106940838Y-50801950D01*
X106897406Y-62144558D02*
X106493711Y-62248732D01*
X106940838Y-50801950D02*
X107014632Y-51150663D01*
X107014632Y-51150663D02*
X107039972Y-51513845D01*
X107039972Y-51513845D02*
X107039972Y-57750894D01*
X107039972Y-57750894D02*
X107053692Y-58067051D01*
X107053692Y-58067051D02*
X107094922Y-58381037D01*
X107094922Y-58381037D02*
X107162206Y-58690684D01*
X107162206Y-58690684D02*
X107255530Y-58993819D01*
X107255530Y-58993819D02*
X107374894Y-59287548D01*
X107316295Y-62080886D02*
X106897406Y-62144558D01*
X107374894Y-59287548D02*
X107519591Y-59570425D01*
X107519591Y-59570425D02*
X107690331Y-59840277D01*
X107690331Y-59840277D02*
X107884217Y-60094220D01*
X107746760Y-62058444D02*
X107316295Y-62080886D01*
X107884217Y-60094220D02*
X109521437Y-62058444D01*
X109245595Y-145695284D02*
X109661587Y-146074387D01*
X109521437Y-62058444D02*
X107746760Y-62058444D01*
X109661587Y-146074387D02*
X110107251Y-146407906D01*
X110107251Y-146407906D02*
X110578954Y-146695847D01*
X110578954Y-146695847D02*
X111074530Y-146936039D01*
X111074530Y-146936039D02*
X111589643Y-147127760D01*
X111589643Y-147127760D02*
X112121396Y-147270281D01*
X112121396Y-147270281D02*
X112668338Y-147362163D01*
X112668338Y-147362163D02*
X113226137Y-147401237D01*
X113226137Y-147401237D02*
X114690438Y-152053885D01*
X114690438Y-152053885D02*
X114946552Y-152697051D01*
X114946552Y-152697051D02*
X115283690Y-153292465D01*
X115283690Y-153292465D02*
X115694620Y-153832178D01*
X115694620Y-153832178D02*
X116169938Y-154311115D01*
X116169938Y-154311115D02*
X116703142Y-154721326D01*
X116703142Y-154721326D02*
X117285534Y-155058460D01*
X117285534Y-155058460D02*
X117909889Y-155313848D01*
X117909889Y-155313848D02*
X118567526Y-155482414D01*
X118567526Y-155482414D02*
X118567526Y-156240616D01*
X118567526Y-156240616D02*
X118597906Y-156542302D01*
X118597906Y-156542302D02*
X118685448Y-156823733D01*
X118685448Y-156823733D02*
X118823628Y-157078394D01*
X118823628Y-157078394D02*
X119006666Y-157300500D01*
X119006666Y-157300500D02*
X119228771Y-157483537D01*
X119228771Y-157483537D02*
X119483433Y-157621717D01*
X119483433Y-157621717D02*
X119764138Y-157709259D01*
X119764138Y-157709259D02*
X120066554Y-157739639D01*
X120066554Y-157739639D02*
X120362449Y-157709259D01*
X120362449Y-157709259D02*
X120639540Y-157621717D01*
X120639540Y-157621717D02*
X120891309Y-157483537D01*
X120704208Y-31526493D02*
X120704208Y-32095142D01*
X120704208Y-32095142D02*
X100544670Y-32095142D01*
X120747622Y-31092411D02*
X120704208Y-31526493D01*
X120873510Y-30687990D02*
X120747622Y-31092411D01*
X120891309Y-157483537D02*
X121111244Y-157300500D01*
X121072464Y-30322636D02*
X120873510Y-30687990D01*
X121111244Y-157300500D02*
X121292833Y-157078394D01*
X121292833Y-157078394D02*
X121430299Y-156823733D01*
X121335083Y-30003585D02*
X121072464Y-30322636D01*
X121430299Y-156823733D02*
X121517841Y-156542302D01*
X121517841Y-156542302D02*
X121548207Y-156240616D01*
X121548207Y-155603236D02*
X123305520Y-155603236D01*
X121548207Y-156240616D02*
X121548207Y-155603236D01*
X121654137Y-29740242D02*
X121335083Y-30003585D01*
X122020212Y-29542010D02*
X121654137Y-29740242D01*
X122423910Y-29416127D02*
X122020212Y-29542010D01*
X122857991Y-29372718D02*
X122423910Y-29416127D01*
X123305520Y-155603236D02*
X123305520Y-156240616D01*
X123305520Y-156240616D02*
X123335900Y-156542302D01*
X123335900Y-156542302D02*
X123423442Y-156823733D01*
X123423442Y-156823733D02*
X123561622Y-157078394D01*
X123561622Y-157078394D02*
X123744660Y-157300500D01*
X123744660Y-157300500D02*
X123966765Y-157483537D01*
X123966765Y-157483537D02*
X124221426Y-157621717D01*
X124221426Y-157621717D02*
X124502858Y-157709259D01*
X124502858Y-157709259D02*
X124804544Y-157739639D01*
X124804544Y-157739639D02*
X125101169Y-157709259D01*
X125101169Y-157709259D02*
X125378260Y-157621717D01*
X125378260Y-157621717D02*
X125629303Y-157483537D01*
X125629303Y-157483537D02*
X125849237Y-157300500D01*
X125849237Y-157300500D02*
X126030831Y-157078394D01*
X126030831Y-157078394D02*
X126169011Y-156823733D01*
X126169011Y-156823733D02*
X126255825Y-156542302D01*
X126255825Y-156542302D02*
X126286205Y-156240616D01*
X126286205Y-155603236D02*
X128044242Y-155603236D01*
X126286205Y-156240616D02*
X126286205Y-155603236D01*
X128044242Y-155603236D02*
X128044242Y-156240616D01*
X128044242Y-156240616D02*
X128074622Y-156542302D01*
X128074622Y-156542302D02*
X128161436Y-156823733D01*
X128161436Y-156823733D02*
X128299616Y-157078394D01*
X128299616Y-157078394D02*
X128481206Y-157300500D01*
X128481206Y-157300500D02*
X128701141Y-157483537D01*
X128701141Y-157483537D02*
X128952910Y-157621717D01*
X128952910Y-157621717D02*
X129229274Y-157709259D01*
X129229274Y-157709259D02*
X129525899Y-157739639D01*
X129525899Y-157739639D02*
X129827585Y-157709259D01*
X129827585Y-157709259D02*
X130109017Y-157621717D01*
X130109017Y-157621717D02*
X130363678Y-157483537D01*
X130363678Y-157483537D02*
X130585784Y-157300500D01*
X130585784Y-157300500D02*
X130768822Y-157078394D01*
X130768822Y-157078394D02*
X130907002Y-156823733D01*
X130907002Y-156823733D02*
X130994544Y-156542302D01*
X130994544Y-156542302D02*
X131024924Y-156240616D01*
X131024924Y-155603236D02*
X141604249Y-155603236D01*
X131024924Y-156240616D02*
X131024924Y-155603236D01*
X133368508Y-29372718D02*
X122857991Y-29372718D01*
X133802592Y-29416127D02*
X133368508Y-29372718D01*
X134206286Y-29542010D02*
X133802592Y-29416127D01*
X134572363Y-29740242D02*
X134206286Y-29542010D01*
X134891413Y-30003585D02*
X134572363Y-29740242D01*
X135154035Y-30322636D02*
X134891413Y-30003585D01*
X135352990Y-30687990D02*
X135154035Y-30322636D01*
X135478875Y-31092411D02*
X135352990Y-30687990D01*
X135522285Y-31526493D02*
X135478875Y-31092411D01*
X135522285Y-32095139D02*
X135522285Y-31526493D01*
X141604249Y-155603236D02*
X142002161Y-155587304D01*
X142002161Y-155587304D02*
X142393559Y-155541006D01*
X142393559Y-155541006D02*
X142776273Y-155464314D01*
X142776273Y-155464314D02*
X143149583Y-155358684D01*
X143149583Y-155358684D02*
X143511321Y-155225572D01*
X143511321Y-155225572D02*
X143860756Y-155065683D01*
X143860756Y-155065683D02*
X144196447Y-154880474D01*
X144196447Y-154880474D02*
X144516224Y-154670670D01*
X144516224Y-154670670D02*
X144819359Y-154436989D01*
X144819359Y-154436989D02*
X145104409Y-154180153D01*
X145104409Y-154180153D02*
X145368475Y-153902340D01*
X145368475Y-153902340D02*
X145612284Y-153604270D01*
X145612284Y-153604270D02*
X145832941Y-153285945D01*
X145832941Y-153285945D02*
X146029002Y-152949528D01*
X146029002Y-152949528D02*
X146199742Y-152595755D01*
X146199742Y-152595755D02*
X146342990Y-152226057D01*
X146342990Y-152226057D02*
X148082937Y-147401224D01*
X146687183Y-62058337D02*
X148324402Y-60094114D01*
X148082937Y-147401224D02*
X148640736Y-147362150D01*
X148324402Y-60094114D02*
X148519018Y-59840172D01*
X148519018Y-59840172D02*
X148689033Y-59570318D01*
X148640736Y-147362150D02*
X149187678Y-147270268D01*
X148689033Y-59570318D02*
X148833729Y-59287441D01*
X148833729Y-59287441D02*
X148953107Y-58993711D01*
X148953107Y-58993711D02*
X149046431Y-58690577D01*
X149046431Y-58690577D02*
X149113715Y-58380931D01*
X149113715Y-58380931D02*
X149154959Y-58066944D01*
X149154959Y-58066944D02*
X149168679Y-57750787D01*
X149168679Y-51513743D02*
X149194019Y-51150559D01*
X149168679Y-57750787D02*
X149168679Y-51513743D01*
X149187678Y-147270268D02*
X149720153Y-147127747D01*
X149194019Y-51150559D02*
X149268541Y-50801124D01*
X149268541Y-50801124D02*
X149389361Y-50469773D01*
X149306154Y-62058337D02*
X146687183Y-62058337D01*
X149389361Y-50469773D02*
X149553585Y-50158680D01*
X149553585Y-50158680D02*
X149759777Y-49872908D01*
X149720153Y-147127747D02*
X150236716Y-146936027D01*
X149733723Y-62080779D02*
X149306154Y-62058337D01*
X149759777Y-49872908D02*
X150004308Y-49616077D01*
X150004308Y-49616077D02*
X150285018Y-49391800D01*
X150149723Y-62144451D02*
X149733723Y-62080779D01*
X150236716Y-146936027D02*
X150733739Y-146695834D01*
X150285018Y-49391800D02*
X150598282Y-49204421D01*
X150551972Y-62248625D02*
X150149723Y-62144451D01*
X150598282Y-49204421D02*
X156853416Y-46051531D01*
X150733739Y-146695834D02*
X151209061Y-146407894D01*
X150937580Y-62391148D02*
X150551972Y-62248625D01*
X151209061Y-146407894D02*
X151658335Y-146074374D01*
X151304381Y-62568399D02*
X150937580Y-62391148D01*
X151650922Y-62780373D02*
X151304381Y-62568399D01*
X151658335Y-146074374D02*
X152080844Y-145695271D01*
X151975040Y-63022737D02*
X151650922Y-62780373D01*
X152080844Y-145695271D02*
X171344000Y-126432117D01*
X152274559Y-63294760D02*
X151975040Y-63022737D01*
X152546582Y-63594283D02*
X152274559Y-63294760D01*
X152788946Y-63917676D02*
X152546582Y-63594283D01*
X153000197Y-64264940D02*
X152788946Y-63917676D01*
X153178172Y-64631739D02*
X153000197Y-64264940D01*
X153320696Y-65017349D02*
X153178172Y-64631739D01*
X153424870Y-65419600D02*
X153320696Y-65017349D01*
X153488528Y-65834874D02*
X153424870Y-65419600D01*
X153510228Y-66263169D02*
X153488528Y-65834874D01*
X153510228Y-69226511D02*
X153510228Y-66263169D01*
X154492699Y-68137682D02*
X153510228Y-69226511D01*
X155333374Y-67107461D02*
X154492699Y-68137682D01*
X155664462Y-32095139D02*
X135522285Y-32095139D01*
X155914059Y-32108887D02*
X155664462Y-32095139D01*
X156043100Y-66138009D02*
X155333374Y-67107461D01*
X156156419Y-32151572D02*
X155914059Y-32108887D01*
X156390100Y-32220302D02*
X156156419Y-32151572D01*
X156612206Y-32314354D02*
X156390100Y-32220302D01*
X156632725Y-65230050D02*
X156043100Y-66138009D01*
X156822014Y-32433004D02*
X156612206Y-32314354D01*
X156853416Y-46051531D02*
X157065394Y-45928541D01*
X157016631Y-32574804D02*
X156822014Y-32433004D01*
X157065394Y-45928541D02*
X157261456Y-45780229D01*
X157113838Y-64385760D02*
X156632725Y-65230050D01*
X157194604Y-32737585D02*
X157016631Y-32574804D01*
X157261456Y-45780229D02*
X157438704Y-45610213D01*
X157352759Y-97570674D02*
X163021883Y-92677112D01*
X157353044Y-32922071D02*
X157194604Y-32737585D01*
X157438704Y-45610213D02*
X157596424Y-45420665D01*
X157495830Y-63606581D02*
X157113838Y-64385760D01*
X157596424Y-45420665D02*
X157732434Y-45213752D01*
X157732434Y-45213752D02*
X157844574Y-44992370D01*
X157790282Y-62893236D02*
X157495830Y-63606581D01*
X157844574Y-44992370D02*
X157930674Y-44760135D01*
X157930674Y-44760135D02*
X157990720Y-44517771D01*
X157990720Y-44517771D02*
X159403660Y-36660871D01*
X158007324Y-62247900D02*
X157790282Y-62893236D01*
X158059423Y-57009963D02*
X158072443Y-57100403D01*
X158072443Y-57100403D02*
X158110789Y-57164789D01*
X158081123Y-56934727D02*
X158059423Y-57009963D01*
X158110789Y-57164789D02*
X159351545Y-58629819D01*
X158128149Y-56872511D02*
X158081123Y-56934727D01*
X158159253Y-61672742D02*
X158007324Y-62247900D01*
X158254747Y-61167758D02*
X158159253Y-61672742D01*
X158266339Y-59715026D02*
X158298161Y-59889383D01*
X158275019Y-59590594D02*
X158266339Y-59715026D01*
X158298161Y-59889383D02*
X158322759Y-60377726D01*
X158305385Y-60735844D02*
X158254747Y-61167758D01*
X158322759Y-60377726D02*
X158305385Y-60735844D01*
X158335065Y-59491474D02*
X158275019Y-59590594D01*
X158972897Y-34955026D02*
X157353044Y-32922071D01*
X159214535Y-35340636D02*
X158972897Y-34955026D01*
X159351545Y-58629819D02*
X158335065Y-59491474D01*
X159369359Y-35763143D02*
X159214535Y-35340636D01*
X159403660Y-36660871D02*
X159433326Y-36207978D01*
X159433326Y-36207978D02*
X159369359Y-35763143D01*
X159507088Y-55700487D02*
X158128149Y-56872511D01*
X159586664Y-55654903D02*
X159507088Y-55700487D01*
X159668424Y-55644823D02*
X159586664Y-55654903D01*
X159746558Y-55666523D02*
X159668424Y-55644823D01*
X159816740Y-55717889D02*
X159746558Y-55666523D01*
X160553287Y-54893128D02*
X160563367Y-54973432D01*
X160563367Y-54973432D02*
X160609665Y-55045784D01*
X160575701Y-54815722D02*
X160553287Y-54893128D01*
X160609665Y-55045784D02*
X161833055Y-56493451D01*
X160627067Y-54752778D02*
X160575701Y-54815722D01*
X161057495Y-57164832D02*
X159816740Y-55717889D01*
X161781127Y-97570674D02*
X157352759Y-97570674D01*
X161833055Y-56493451D02*
X161057495Y-57164832D01*
X162005280Y-53564115D02*
X160627067Y-54752778D01*
X162076176Y-53525041D02*
X162005280Y-53564115D01*
X162103076Y-97587306D02*
X161781127Y-97570674D01*
X162160092Y-53512021D02*
X162076176Y-53525041D01*
X162237498Y-53535891D02*
X162160092Y-53512021D01*
X162315632Y-53598107D02*
X162237498Y-53535891D01*
X162415614Y-97635060D02*
X162103076Y-97587306D01*
X162717300Y-97712466D02*
X162415614Y-97635060D01*
X162896631Y-51033396D02*
X162906711Y-51113700D01*
X162906711Y-51113700D02*
X162953009Y-51186052D01*
X162919073Y-50955990D02*
X162896631Y-51033396D01*
X162953009Y-51186052D02*
X165106785Y-53701562D01*
X162970439Y-50893046D02*
X162919073Y-50955990D01*
X163005244Y-97818096D02*
X162717300Y-97712466D01*
X163021883Y-92677112D02*
X165865126Y-90230327D01*
X163280163Y-97951208D02*
X163005244Y-97818096D01*
X163538440Y-98108924D02*
X163280163Y-97951208D01*
X163539019Y-55028410D02*
X162315632Y-53598107D01*
X163779359Y-98289791D02*
X163538440Y-98108924D01*
X164002187Y-98492364D02*
X163779359Y-98289791D01*
X164204037Y-98715919D02*
X164002187Y-98492364D01*
X164384178Y-98957561D02*
X164204037Y-98715919D01*
X164538202Y-49549559D02*
X162970439Y-50893046D01*
X164540450Y-99215837D02*
X164384178Y-98957561D01*
X164602588Y-49503975D02*
X164538202Y-49549559D01*
X164672120Y-99490034D02*
X164540450Y-99215837D01*
X164693028Y-49497395D02*
X164602588Y-49503975D01*
X164768264Y-49519095D02*
X164693028Y-49497395D01*
X164777022Y-99777251D02*
X164672120Y-99490034D01*
X164831208Y-49566121D02*
X164768264Y-49519095D01*
X164853714Y-100077492D02*
X164777022Y-99777251D01*
X164901468Y-100387865D02*
X164853714Y-100077492D01*
X164917400Y-100706912D02*
X164901468Y-100387865D01*
X164917400Y-102309404D02*
X164917400Y-100706912D01*
X165106785Y-53701562D02*
X163539019Y-55028410D01*
X165865126Y-90230327D02*
X167506684Y-88886845D01*
X166226781Y-51185974D02*
X164831208Y-49566121D01*
X167506684Y-88886845D02*
X169041168Y-87750992D01*
X169041168Y-87750992D02*
X170467854Y-86807585D01*
X170467854Y-86807585D02*
X171787464Y-86039259D01*
X171344000Y-108753366D02*
X164917400Y-102309404D01*
X171344000Y-126432117D02*
X171739738Y-125995143D01*
X171739738Y-109183831D02*
X171344000Y-108753366D01*
X171739738Y-125995143D02*
X172086281Y-125528499D01*
X171787464Y-86039259D02*
X172999281Y-85428649D01*
X172086281Y-109646852D02*
X171739738Y-109183831D01*
X172086281Y-125528499D02*
X172381458Y-125033646D01*
X172381458Y-110138087D02*
X172086281Y-109646852D01*
X172381458Y-125033646D02*
X172625989Y-124514918D01*
X172550650Y-45758490D02*
X166226781Y-51185974D01*
X172625989Y-110655374D02*
X172381458Y-110138087D01*
X172625989Y-124514918D02*
X172817710Y-123975209D01*
X172817710Y-111193633D02*
X172625989Y-110655374D01*
X172817710Y-123975209D02*
X172955890Y-123417410D01*
X172955890Y-111750707D02*
X172817710Y-111193633D01*
X172955890Y-123417410D02*
X173039092Y-122845146D01*
X172999281Y-85428649D02*
X174105472Y-84960562D01*
X173018012Y-45415564D02*
X172550650Y-45758490D01*
X173039092Y-112322253D02*
X172955890Y-111750707D01*
X173039092Y-122845146D02*
X173067316Y-122262028D01*
X173067316Y-112906092D02*
X173039092Y-112322253D01*
X173067316Y-122262028D02*
X173067316Y-112906092D01*
X173523716Y-45149326D02*
X173018012Y-45415564D01*
X174057642Y-44961224D02*
X173523716Y-45149326D01*
X174105472Y-84960562D02*
X175105304Y-84616189D01*
X174611818Y-44851982D02*
X174057642Y-44961224D01*
X175105304Y-84616189D02*
X175998794Y-84381063D01*
X175176126Y-44822316D02*
X174611818Y-44851982D01*
X175741160Y-44873682D02*
X175176126Y-44822316D01*
X175998794Y-84381063D02*
X176786655Y-84236367D01*
X176299678Y-45007522D02*
X175741160Y-44873682D01*
X176786655Y-84236367D02*
X177469614Y-84166185D01*
X176840834Y-45224562D02*
X176299678Y-45007522D01*
X177469614Y-84166185D02*
X178047664Y-84153865D01*
X177475321Y-45559531D02*
X176840834Y-45224562D01*
X178047664Y-84153865D02*
X178520815Y-84182789D01*
X178138744Y-45956716D02*
X177475321Y-45559531D01*
X178520815Y-84182789D02*
X178889788Y-84235611D01*
X178829661Y-46415397D02*
X178138744Y-45956716D01*
X178889788Y-84235611D02*
X179154577Y-84295657D01*
X179154577Y-84295657D02*
X179373789Y-84372349D01*
X179373789Y-84372349D02*
X179501119Y-84386839D01*
X179501119Y-84386839D02*
X179614701Y-84337643D01*
X179548065Y-46934126D02*
X178829661Y-46415397D01*
X179614701Y-84337643D02*
X180614542Y-83458623D01*
X180293239Y-47513627D02*
X179548065Y-46934126D01*
X180614542Y-83458623D02*
X181871932Y-84923654D01*
X181063740Y-48151730D02*
X180293239Y-47513627D01*
X181860280Y-48847709D02*
X181063740Y-48151730D01*
X181871932Y-84923654D02*
X181934876Y-84985870D01*
X181934876Y-84985870D02*
X182010126Y-85009726D01*
X182010126Y-85009726D02*
X182027500Y-85009726D01*
X182027500Y-85009726D02*
X182182326Y-84957632D01*
X182182326Y-84957632D02*
X183560540Y-83768969D01*
X182319731Y-81994287D02*
X183112653Y-81339542D01*
X182682146Y-49600843D02*
X181860280Y-48847709D01*
X182957788Y-49497383D02*
X182682146Y-49600843D01*
X183112653Y-81339542D02*
X184353407Y-82786485D01*
X183491710Y-49334603D02*
X182957788Y-49497383D01*
X183560540Y-83768969D02*
X183609736Y-83696617D01*
X183577844Y-83458589D02*
X182319731Y-81994287D01*
X183609736Y-83696617D02*
X183627810Y-83614143D01*
X183616190Y-83531669D02*
X183577844Y-83458589D01*
X183627810Y-83614143D02*
X183616190Y-83531669D01*
X184062529Y-49236939D02*
X183491710Y-49334603D01*
X184353407Y-82786485D02*
X184417793Y-82842919D01*
X184417793Y-82842919D02*
X184508219Y-82873299D01*
X184508219Y-82873299D02*
X184525593Y-82873299D01*
X184525593Y-82873299D02*
X184600829Y-82860279D01*
X184600829Y-82860279D02*
X184663773Y-82821205D01*
X184653606Y-49209443D02*
X184062529Y-49236939D01*
X184663773Y-82821205D02*
X186041986Y-81632538D01*
X184818507Y-79875223D02*
X186368909Y-78548380D01*
X185246852Y-49258639D02*
X184653606Y-49209443D01*
X185827079Y-49388867D02*
X185246852Y-49258639D01*
X186041986Y-81632538D02*
X186090454Y-81569594D01*
X186059262Y-81339532D02*
X184818507Y-79875223D01*
X186090454Y-81569594D02*
X186108528Y-81492188D01*
X186097608Y-81411884D02*
X186059262Y-81339532D01*
X186108528Y-81492188D02*
X186097608Y-81411884D01*
X186368909Y-78548380D02*
X188522681Y-81063890D01*
X186376193Y-49606631D02*
X185827079Y-49388867D01*
X186634469Y-49749879D02*
X186376193Y-49606631D01*
X186879003Y-49916277D02*
X186634469Y-49749879D01*
X187106895Y-50107998D02*
X186879003Y-49916277D01*
X187316706Y-50324316D02*
X187106895Y-50107998D01*
X188522681Y-81063890D02*
X188594305Y-81117426D01*
X188594305Y-81117426D02*
X188678221Y-81132616D01*
X188678221Y-81132616D02*
X188753471Y-81119596D01*
X188753471Y-81119596D02*
X188815687Y-81081250D01*
X188815687Y-81081250D02*
X190384172Y-79737042D01*
X189040035Y-77841561D02*
X195380538Y-72414079D01*
X190384172Y-79737042D02*
X190437708Y-79674826D01*
X190418248Y-79444050D02*
X189040035Y-77841561D01*
X190437708Y-79674826D02*
X190452898Y-79598862D01*
X190452898Y-79598862D02*
X190455138Y-79514946D01*
X190455138Y-79514946D02*
X190418248Y-79444050D01*
X193123287Y-57130736D02*
X187316706Y-50324316D01*
X193140649Y-61817386D02*
X193278829Y-61559106D01*
X193278829Y-61559106D02*
X193523364Y-61052675D01*
X193309218Y-57368035D02*
X193123287Y-57130736D01*
X193466938Y-57619804D02*
X193309218Y-57368035D01*
X193523364Y-61052675D02*
X193710020Y-60501392D01*
X193596438Y-57884594D02*
X193466938Y-57619804D01*
X193700612Y-58159512D02*
X193596438Y-57884594D01*
X193710020Y-60501392D02*
X193829384Y-59919718D01*
X193829384Y-59919718D02*
X193872798Y-59325750D01*
X193833010Y-58733227D02*
X193700612Y-58159512D01*
X193872798Y-59325750D02*
X193833010Y-58733227D01*
X194316292Y-63635472D02*
X193140649Y-61817386D01*
X194824167Y-64492783D02*
X194316292Y-63635472D01*
X195279227Y-65315372D02*
X194824167Y-64492783D01*
X195380538Y-72414079D02*
X195691636Y-72115282D01*
X195680758Y-66101784D02*
X195279227Y-65315372D01*
X195691636Y-72115282D02*
X195964381Y-71789001D01*
X195964381Y-71789001D02*
X196197340Y-71438834D01*
X196026576Y-66852028D02*
X195680758Y-66101784D01*
X196197340Y-71438834D02*
X196391232Y-71067696D01*
X196317412Y-67566818D02*
X196026576Y-66852028D01*
X196391232Y-71067696D02*
X196543158Y-70680639D01*
X196543158Y-70680639D02*
X196653128Y-70279112D01*
X196552538Y-68243984D02*
X196317412Y-67566818D01*
X196653128Y-70279112D02*
X196719684Y-69868179D01*
X196692174Y-68847363D02*
X196552538Y-68243984D01*
X196719684Y-69868179D02*
X196742098Y-69450738D01*
X196742098Y-69450738D02*
X196692174Y-68847363D01*
D11*
%TO.C,D15*%
X120974214Y-106580000D02*
X119560000Y-107994214D01*
X118145786Y-106580000D02*
X119560000Y-105165786D01*
X118145786Y-106580000D02*
G75*
G03*
X119560000Y-107994214I1414213J-1D01*
G01*
X120974214Y-106580000D02*
G75*
G03*
X119560000Y-105165786I-1414213J1D01*
G01*
%TO.C,D19*%
X117210000Y-118545786D02*
X118624214Y-119960000D01*
X117210000Y-121374214D02*
X115795786Y-119960000D01*
X117210000Y-121374214D02*
G75*
G03*
X118624214Y-119960000I1J1414213D01*
G01*
X117210000Y-118545786D02*
G75*
G03*
X115795786Y-119960000I-1J-1414213D01*
G01*
%TO.C,D18*%
X127764214Y-104100000D02*
X126350000Y-105514214D01*
X124935786Y-104100000D02*
X126350000Y-102685786D01*
X124935786Y-104100000D02*
G75*
G03*
X126350000Y-105514214I1414213J-1D01*
G01*
X127764214Y-104100000D02*
G75*
G03*
X126350000Y-102685786I-1414213J1D01*
G01*
%TO.C,D22*%
X115950000Y-111435786D02*
X117364214Y-112850000D01*
X115950000Y-114264214D02*
X114535786Y-112850000D01*
X115950000Y-114264214D02*
G75*
G03*
X117364214Y-112850000I1J1414213D01*
G01*
X115950000Y-111435786D02*
G75*
G03*
X114535786Y-112850000I-1J-1414213D01*
G01*
%TO.C,D23*%
X128565786Y-124620000D02*
X129980000Y-123205786D01*
X131394214Y-124620000D02*
X129980000Y-126034214D01*
X131394214Y-124620000D02*
G75*
G03*
X129980000Y-123205786I-1414213J1D01*
G01*
X128565786Y-124620000D02*
G75*
G03*
X129980000Y-126034214I1414213J-1D01*
G01*
%TO.C,D20*%
X135525000Y-118585786D02*
X136939214Y-120000000D01*
X135525000Y-121414214D02*
X134110786Y-120000000D01*
X135525000Y-121414214D02*
G75*
G03*
X136939214Y-120000000I1J1414213D01*
G01*
X135525000Y-118585786D02*
G75*
G03*
X134110786Y-120000000I-1J-1414213D01*
G01*
%TO.C,D21*%
X133150000Y-107989214D02*
X131735786Y-106575000D01*
X133150000Y-105160786D02*
X134564214Y-106575000D01*
X133150000Y-105160786D02*
G75*
G03*
X131735786Y-106575000I-1J-1414213D01*
G01*
X133150000Y-107989214D02*
G75*
G03*
X134564214Y-106575000I1J1414213D01*
G01*
%TO.C,D17*%
X136775914Y-111434873D02*
X138190128Y-112849087D01*
X136775914Y-114263301D02*
X135361700Y-112849087D01*
X136775914Y-114263301D02*
G75*
G03*
X138190128Y-112849087I1J1414213D01*
G01*
X136775914Y-111434873D02*
G75*
G03*
X135361700Y-112849087I-1J-1414213D01*
G01*
%TO.C,D16*%
X122750000Y-123195786D02*
X124164214Y-124610000D01*
X122750000Y-126024214D02*
X121335786Y-124610000D01*
X122750000Y-126024214D02*
G75*
G03*
X124164214Y-124610000I1J1414213D01*
G01*
X122750000Y-123195786D02*
G75*
G03*
X121335786Y-124610000I-1J-1414213D01*
G01*
%TD*%
M02*
